<?xml version="1.0" encoding="iso-8859-1"?>
<!-- Generator: Adobe Illustrator 19.0.0, SVG Export Plug-In . SVG Version: 6.00 Build 0)  -->
<svg version="1.1" id="Capa_1" xmlns="http://www.w3.org/2000/svg" xmlns:xlink="http://www.w3.org/1999/xlink" x="0px" y="0px"
	 viewBox="0 0 512.001 512.001" style="enable-background:new 0 0 512.001 512.001;" xml:space="preserve">
<g>
	<g>
		<path d="M376.364,477.369l-98.966-131.954c-3.117-4.157-8.005-6.598-13.195-6.598c-5.19,0-10.084,2.441-13.195,6.598
			l-98.966,131.954c-5.465,7.285-3.992,17.627,3.299,23.092c7.285,5.46,17.627,3.986,23.092-3.304l85.77-114.361l85.77,114.361
			c3.238,4.321,8.192,6.598,13.206,6.598c3.447,0,6.922-1.072,9.88-3.293C380.35,494.996,381.829,484.654,376.364,477.369z"/>
	</g>
</g>
<g>
	<g>
		<path d="M264.203,204.657c-9.11,0-16.494,7.384-16.494,16.494v274.355c0,9.11,7.384,16.494,16.494,16.494
			c9.116,0,16.494-7.384,16.494-16.494V221.152C280.697,212.041,273.313,204.657,264.203,204.657z"/>
	</g>
</g>
<g>
	<g>
		<path d="M100.953,235.271l-37.805,13.25l-11.535-32.626l38.206-13.256l-10.815-31.169l-53.881,18.694
			c-4.151,1.446-7.554,4.475-9.457,8.434c-1.902,3.953-2.15,8.511-0.687,12.651l22.542,63.778
			c2.397,6.768,8.758,11.002,15.554,11.002c1.814,0,3.656-0.297,5.454-0.935l53.332-18.688L100.953,235.271z"/>
	</g>
</g>
<g>
	<g>
		<path d="M378.684,162.679l-256.569,88.629l-25.528-73.873l256.058-89.157l-10.848-31.152L70.197,151.694
			c-8.588,2.991-13.135,12.371-10.166,20.964l36.287,105.008c2.359,6.829,8.747,11.112,15.587,11.112
			c1.787,0,3.601-0.291,5.394-0.902l272.156-94.018L378.684,162.679z"/>
	</g>
</g>
<g>
	<g>
		<path d="M497.058,167.991L442.693,11.097c-2.98-8.599-12.365-13.168-20.986-10.182l-89.872,31.147
			c-4.135,1.43-7.527,4.442-9.44,8.379c-1.908,3.931-2.177,8.467-0.748,12.602l54.36,156.894
			c2.364,6.823,8.753,11.101,15.587,11.101c1.792,0,3.618-0.297,5.399-0.924l89.878-31.141c4.135-1.43,7.527-4.442,9.44-8.379
			C498.218,176.661,498.488,172.125,497.058,167.991z M401.782,183.556L358.215,57.831l58.709-20.343l43.567,125.725
			L401.782,183.556z"/>
	</g>
</g>
<g>
	<g>
		
			<rect x="134.461" y="144.441" transform="matrix(0.9452 -0.3266 0.3266 0.9452 -57.0406 60.267)" width="32.99" height="111.121"/>
	</g>
</g>
<g>
</g>
<g>
</g>
<g>
</g>
<g>
</g>
<g>
</g>
<g>
</g>
<g>
</g>
<g>
</g>
<g>
</g>
<g>
</g>
<g>
</g>
<g>
</g>
<g>
</g>
<g>
</g>
<g>
</g>
</svg>
