<?xml version="1.0" encoding="iso-8859-1"?>
<!-- Generator: Adobe Illustrator 19.0.0, SVG Export Plug-In . SVG Version: 6.00 Build 0)  -->
<svg version="1.1" id="Capa_1" xmlns="http://www.w3.org/2000/svg" xmlns:xlink="http://www.w3.org/1999/xlink" x="0px" y="0px"
	 viewBox="0 0 512 512" style="enable-background:new 0 0 512 512;" xml:space="preserve">
<g>
	<g>
		<path d="M256,0C114.844,0,0,114.844,0,256s114.844,256,256,256s256-114.844,256-256S397.156,0,256,0z M256,475.774
			c-121.183,0-219.774-98.59-219.774-219.774S134.817,36.226,256,36.226S475.774,134.817,475.774,256S377.183,475.774,256,475.774z"
			/>
	</g>
</g>
<g>
	<g>
		<path d="M256,182.34c-40.616,0-73.66,33.044-73.66,73.66c0,40.616,33.045,73.66,73.66,73.66s73.66-33.044,73.66-73.66
			C329.66,215.384,296.616,182.34,256,182.34z M256,293.434c-20.643,0-37.434-16.791-37.434-37.434
			c0-20.643,16.797-37.434,37.434-37.434s37.434,16.791,37.434,37.434C293.434,276.643,276.643,293.434,256,293.434z"/>
	</g>
</g>
<g>
	<g>
		<path d="M256,0c-10.005,0-18.113,8.109-18.113,18.113v111.094c0,10.005,8.109,18.113,18.113,18.113s18.113-8.109,18.113-18.113
			V18.113C274.113,8.109,266.005,0,256,0z"/>
	</g>
</g>
<g>
	<g>
		<path d="M256,364.679c-10.005,0-18.113,8.109-18.113,18.113v111.094c0,10.005,8.109,18.113,18.113,18.113
			s18.113-8.109,18.113-18.113V382.792C274.113,372.788,266.005,364.679,256,364.679z"/>
	</g>
</g>
<g>
	<g>
		<path d="M493.887,237.887H382.792c-10.005,0-18.113,8.115-18.113,18.113s8.109,18.113,18.113,18.113h111.094
			c10.005,0,18.113-8.109,18.113-18.113S503.891,237.887,493.887,237.887z"/>
	</g>
</g>
<g>
	<g>
		<path d="M129.208,237.887H18.113C8.109,237.887,0,246.002,0,256s8.109,18.113,18.113,18.113h111.094
			c10.005,0,18.113-8.109,18.113-18.113S139.212,237.887,129.208,237.887z"/>
	</g>
</g>
<g>
</g>
<g>
</g>
<g>
</g>
<g>
</g>
<g>
</g>
<g>
</g>
<g>
</g>
<g>
</g>
<g>
</g>
<g>
</g>
<g>
</g>
<g>
</g>
<g>
</g>
<g>
</g>
<g>
</g>
</svg>
