<?xml version="1.0" encoding="iso-8859-1"?>
<!-- Generator: Adobe Illustrator 19.0.0, SVG Export Plug-In . SVG Version: 6.00 Build 0)  -->
<svg version="1.1" id="Capa_1" xmlns="http://www.w3.org/2000/svg" xmlns:xlink="http://www.w3.org/1999/xlink" x="0px" y="0px"
	 viewBox="0 0 511.994 511.994" style="enable-background:new 0 0 511.994 511.994;" xml:space="preserve">
<g>
	<g>
		
			<rect x="320.409" y="247.693" transform="matrix(0.7071 -0.7071 0.7071 0.7071 -78.4135 341.5555)" width="105.357" height="35.476"/>
	</g>
</g>
<g>
	<g>
		
			<rect x="193.877" y="121.181" transform="matrix(0.7071 -0.7071 0.7071 0.7071 -26.0143 215.0282)" width="105.356" height="35.47"/>
	</g>
</g>
<g>
	<g>
		<path d="M305.217,206.769c-66.736-66.742-175.34-66.742-242.076,0l-5.913,5.913c-6.93,6.924-6.93,18.158,0,25.081l216.994,216.994
			c3.465,3.465,8,5.197,12.541,5.197c4.541,0,9.076-1.732,12.541-5.197l5.913-5.913
			C371.959,382.103,371.959,273.505,305.217,206.769z M286.539,416.905L95.081,225.447c53.249-46.414,134.371-44.274,185.054,6.403
			C330.813,282.528,332.947,363.655,286.539,416.905z"/>
	</g>
</g>
<g>
	<g>
		<path d="M191.103,320.883c-6.924-6.93-18.158-6.93-25.081,0L5.197,481.707c-6.93,6.924-6.93,18.158,0,25.081
			c3.459,3.465,8,5.197,12.541,5.197c4.541,0,9.082-1.732,12.541-5.197l160.824-160.824
			C198.032,339.041,198.032,327.807,191.103,320.883z"/>
	</g>
</g>
<g>
	<g>
		<path d="M506.797,186.228L325.769,5.201c-6.93-6.924-18.152-6.924-25.081,0l-56.442,56.442c-3.329,3.329-5.197,7.84-5.197,12.547
			c0,4.701,1.868,9.212,5.197,12.541l181.033,181.028c3.465,3.465,8,5.197,12.541,5.197c4.535,0,9.076-1.732,12.535-5.203
			l56.442-56.442C513.726,204.386,513.726,193.152,506.797,186.228z M437.82,230.136L281.874,74.19l31.361-31.355l155.946,155.946
			L437.82,230.136z"/>
	</g>
</g>
<g>
</g>
<g>
</g>
<g>
</g>
<g>
</g>
<g>
</g>
<g>
</g>
<g>
</g>
<g>
</g>
<g>
</g>
<g>
</g>
<g>
</g>
<g>
</g>
<g>
</g>
<g>
</g>
<g>
</g>
</svg>
