<?xml version="1.0" encoding="iso-8859-1"?>
<!-- Generator: Adobe Illustrator 19.0.0, SVG Export Plug-In . SVG Version: 6.00 Build 0)  -->
<svg version="1.1" id="Capa_1" xmlns="http://www.w3.org/2000/svg" xmlns:xlink="http://www.w3.org/1999/xlink" x="0px" y="0px"
	 viewBox="0 0 512 512" style="enable-background:new 0 0 512 512;" xml:space="preserve">
<g>
	<g>
		<path d="M394.804,113.932l-37.701-42.299l37.695-42.299c4.621-5.179,5.76-12.589,2.924-18.924C394.886,4.075,388.592,0,381.651,0
			H253.064c-9.729,0-17.615,7.885-17.615,17.615v187.89h35.229v-62.239h110.978c6.934,0,13.234-4.081,16.07-10.41
			C400.564,126.526,399.425,119.11,394.804,113.932z M320.358,83.353l22.001,24.684h-71.68V35.229h71.68l-22.001,24.684
			C314.399,66.595,314.399,76.671,320.358,83.353z"/>
	</g>
</g>
<g>
	<g>
		<path d="M441.383,485.331L268.172,196.451c-3.182-5.314-8.919-8.561-15.108-8.561c-6.189,0-11.925,3.247-15.102,8.561
			L64.752,485.331c-3.265,5.437-3.347,12.219-0.223,17.738c3.124,5.519,8.978,8.931,15.325,8.931h346.422
			c6.347,0,12.201-3.411,15.325-8.931S444.647,490.774,441.383,485.331z M110.955,476.771l142.109-237.011l142.109,237.011H110.955z
			"/>
	</g>
</g>
<g>
	<g>
		<path d="M495.994,438.377L379.737,244.022c-3.177-5.308-8.901-8.567-15.09-8.573c-0.006,0-0.018,0-0.023,0
			c-6.177,0-11.908,3.241-15.09,8.537l-41.688,69.284l30.186,18.167l26.545-44.131l85.243,142.491h-52.31v35.229h83.37
			c6.341,0,12.195-3.411,15.319-8.919C499.329,450.589,499.253,443.819,495.994,438.377z"/>
	</g>
</g>
<g>
	<g>
		<path d="M162.484,243.993c-3.182-5.308-8.913-8.555-15.102-8.555c-0.006,0-0.012,0-0.012,0
			c-6.195,0.006-11.925,3.259-15.108,8.572L16.006,438.365c-3.259,5.443-3.335,12.219-0.206,17.732
			c3.124,5.519,8.978,8.931,15.319,8.931h76.917v-35.229H62.18l85.22-142.462l23.627,39.375l30.209-18.131L162.484,243.993z"/>
	</g>
</g>
<g>
</g>
<g>
</g>
<g>
</g>
<g>
</g>
<g>
</g>
<g>
</g>
<g>
</g>
<g>
</g>
<g>
</g>
<g>
</g>
<g>
</g>
<g>
</g>
<g>
</g>
<g>
</g>
<g>
</g>
</svg>
