<?xml version="1.0" encoding="iso-8859-1"?>
<!-- Generator: Adobe Illustrator 19.0.0, SVG Export Plug-In . SVG Version: 6.00 Build 0)  -->
<svg version="1.1" id="Capa_1" xmlns="http://www.w3.org/2000/svg" xmlns:xlink="http://www.w3.org/1999/xlink" x="0px" y="0px"
	 viewBox="0 0 512.006 512.006" style="enable-background:new 0 0 512.006 512.006;" xml:space="preserve">
<g>
	<g>
		<path d="M502.312,152.902L264.907,23.352c-5.548-3.031-12.261-3.031-17.815,0L9.688,152.902C3.719,156.162,0,162.417,0,169.223
			s3.719,13.06,9.688,16.327l237.404,129.55c2.777,1.512,5.839,2.269,8.907,2.269c3.062,0,6.13-0.756,8.907-2.275l237.404-129.55
			c5.969-3.26,9.688-9.515,9.688-16.321S508.281,156.162,502.312,152.902z M256,277.586L57.417,169.223L256,60.86l198.583,108.363
			L256,277.586z"/>
	</g>
</g>
<g>
	<g>
		<path d="M502.33,239.682l-79.341-43.39l-17.846,32.635l49.471,27.057L256,364.365L57.392,255.984l49.471-27.057l-17.846-32.635
			l-79.341,43.39C3.707,242.948,0,249.209,0,256.009c0,6.8,3.719,13.06,9.688,16.321l237.404,129.55
			c2.777,1.512,5.839,2.269,8.907,2.269c3.062,0,6.13-0.756,8.913-2.275l237.404-129.55c5.969-3.26,9.682-9.515,9.688-16.315
			C512.012,249.209,508.299,242.948,502.33,239.682z"/>
	</g>
</g>
<g>
	<g>
		<path d="M502.38,326.505l-78.715-43.39l-17.951,32.567l49.024,27.019L256,451.145L57.262,342.701l49.031-27.026l-17.951-32.567
			L9.62,326.498c-5.944,3.279-9.633,9.533-9.62,16.321c0.012,6.794,3.732,13.036,9.688,16.296l237.404,129.543
			c2.777,1.512,5.839,2.269,8.907,2.269c3.062,0,6.13-0.756,8.907-2.269l237.404-129.543c5.957-3.254,9.676-9.496,9.688-16.284
			C512.012,336.038,508.324,329.777,502.38,326.505z"/>
	</g>
</g>
<g>
</g>
<g>
</g>
<g>
</g>
<g>
</g>
<g>
</g>
<g>
</g>
<g>
</g>
<g>
</g>
<g>
</g>
<g>
</g>
<g>
</g>
<g>
</g>
<g>
</g>
<g>
</g>
<g>
</g>
</svg>
