<?xml version="1.0" encoding="iso-8859-1"?>
<!-- Generator: Adobe Illustrator 19.0.0, SVG Export Plug-In . SVG Version: 6.00 Build 0)  -->
<svg version="1.1" id="Capa_1" xmlns="http://www.w3.org/2000/svg" xmlns:xlink="http://www.w3.org/1999/xlink" x="0px" y="0px"
	 viewBox="0 0 511.995 511.995" style="enable-background:new 0 0 511.995 511.995;" xml:space="preserve">
<g>
	<g>
		<path d="M382.41,134.833c-0.985-1.267-2.13-2.412-3.397-3.397l-94.051-72.937l-23.525,30.333l92.138,71.453l69.527,89.578
			l30.327-23.538L382.41,134.833z"/>
	</g>
</g>
<g>
	<g>
		<path d="M259.338,255.09L187.91,162.99l-30.333,23.525l72.937,94.051c1.005,1.292,2.169,2.45,3.468,3.448l91.491,70.378
			l23.404-30.429L259.338,255.09z"/>
	</g>
</g>
<g>
	<g>
		<path d="M264.437,277.297L84.781,465.277l-38.132-38.132l187.986-179.656l-26.526-27.755L5.932,412.954
			c-3.73,3.57-5.873,8.49-5.931,13.66c-0.058,5.163,1.971,10.141,5.624,13.788l65.899,65.899c3.596,3.608,8.484,5.624,13.57,5.624
			c0.07,0,0.141,0,0.218,0.006c5.163-0.064,10.09-2.201,13.66-5.937l193.22-202.17L264.437,277.297z"/>
	</g>
</g>
<g>
	<g>
		
			<rect x="132.443" y="319.561" transform="matrix(0.7071 -0.7071 0.7071 0.7071 -210.3421 212.7439)" width="38.381" height="81.433"/>
	</g>
</g>
<g>
	<g>
		<path d="M506.371,256.984l-43.43-43.43c-7.198-7.204-19.943-7.204-27.14,0L312.755,336.607c-7.498,7.498-7.498,19.648,0,27.14
			l43.43,43.43c3.596,3.602,8.477,5.624,13.57,5.624c5.093,0,9.974-2.028,13.57-5.624l123.046-123.053
			C513.869,276.625,513.869,264.476,506.371,256.984z M369.754,366.453l-16.289-16.283l95.906-95.906l16.289,16.283L369.754,366.453
			z"/>
	</g>
</g>
<g>
	<g>
		<path d="M298.27,49.112l-43.43-43.43c-7.492-7.492-19.648-7.492-27.14,0L104.64,128.729c-7.492,7.498-7.492,19.655,0,27.147
			l43.43,43.436c3.602,3.602,8.484,5.624,13.577,5.624c5.086,0,9.968-2.022,13.57-5.624L298.27,76.253
			C305.768,68.761,305.768,56.604,298.27,49.112z M161.64,158.601l-16.283-16.289L241.27,46.4l16.289,16.289L161.64,158.601z"/>
	</g>
</g>
<g>
</g>
<g>
</g>
<g>
</g>
<g>
</g>
<g>
</g>
<g>
</g>
<g>
</g>
<g>
</g>
<g>
</g>
<g>
</g>
<g>
</g>
<g>
</g>
<g>
</g>
<g>
</g>
<g>
</g>
</svg>
