<?xml version="1.0" encoding="iso-8859-1"?>
<!-- Generator: Adobe Illustrator 19.0.0, SVG Export Plug-In . SVG Version: 6.00 Build 0)  -->
<svg version="1.1" id="Capa_1" xmlns="http://www.w3.org/2000/svg" xmlns:xlink="http://www.w3.org/1999/xlink" x="0px" y="0px"
	 viewBox="0 0 512 512" style="enable-background:new 0 0 512 512;" xml:space="preserve">
<g>
	<g>
		<path d="M493.714,146.286h-91.429v36.571h73.143v262.095H36.571V182.857h73.143v-36.571H18.286C8.186,146.286,0,154.472,0,164.571
			v298.667c0,10.1,8.186,18.286,18.286,18.286h475.429c10.1,0,18.286-8.186,18.286-18.286V164.571
			C512,154.472,503.814,146.286,493.714,146.286z"/>
	</g>
</g>
<g>
	<g>
		<path d="M402.286,30.476H109.714c-10.1,0-18.286,8.186-18.286,18.286v243.81H128V67.048h256v225.524h36.571V48.762
			C420.571,38.662,412.385,30.476,402.286,30.476z"/>
	</g>
</g>
<g>
	<g>
		<path d="M323.048,274.286c-10.1,0-18.286,8.186-18.286,18.286v24.381h-97.524v-24.381c0-10.1-8.186-18.286-18.286-18.286H18.286
			v36.571h152.381v24.381c0,10.1,8.186,18.286,18.286,18.286h134.095c10.1,0,18.286-8.186,18.286-18.286v-24.381h152.381v-36.571
			H323.048z"/>
	</g>
</g>
<g>
	<g>
		<path d="M323.048,115.81H188.952c-10.1,0-18.286,8.186-18.286,18.286c0,10.1,8.186,18.286,18.286,18.286h134.095
			c10.1,0,18.286-8.186,18.286-18.286C341.333,123.995,333.147,115.81,323.048,115.81z"/>
	</g>
</g>
<g>
	<g>
		<path d="M323.048,188.952H188.952c-10.1,0-18.286,8.186-18.286,18.286s8.186,18.286,18.286,18.286h134.095
			c10.1,0,18.286-8.186,18.286-18.286S333.147,188.952,323.048,188.952z"/>
	</g>
</g>
<g>
</g>
<g>
</g>
<g>
</g>
<g>
</g>
<g>
</g>
<g>
</g>
<g>
</g>
<g>
</g>
<g>
</g>
<g>
</g>
<g>
</g>
<g>
</g>
<g>
</g>
<g>
</g>
<g>
</g>
</svg>
