<?xml version="1.0" encoding="iso-8859-1"?>
<!-- Generator: Adobe Illustrator 19.0.0, SVG Export Plug-In . SVG Version: 6.00 Build 0)  -->
<svg version="1.1" id="Capa_1" xmlns="http://www.w3.org/2000/svg" xmlns:xlink="http://www.w3.org/1999/xlink" x="0px" y="0px"
	 viewBox="0 0 511.994 511.994" style="enable-background:new 0 0 511.994 511.994;" xml:space="preserve">
<g>
	<g>
		<path d="M455.698,388.733c-9.819,0-17.778,7.958-17.778,17.778v66.376c0,9.819,7.958,17.778,17.778,17.778
			c9.825,0,17.778-7.958,17.778-17.784v-66.37C473.476,396.692,465.518,388.733,455.698,388.733z"/>
	</g>
</g>
<g>
	<g>
		<path d="M367.996,336.592c-9.819,0-17.778,7.958-17.778,17.778v118.517c0,9.819,7.958,17.778,17.778,17.778
			s17.778-7.958,17.778-17.778V354.369C385.773,344.55,377.815,336.592,367.996,336.592z"/>
	</g>
</g>
<g>
	<g>
		<path d="M280.293,291.549c-9.819,0-17.778,7.958-17.778,17.778v163.56c0,9.819,7.958,17.778,17.778,17.778
			s17.778-7.958,17.778-17.778v-163.56C298.071,299.508,290.112,291.549,280.293,291.549z"/>
	</g>
</g>
<g>
	<g>
		<path d="M192.59,328.888c-9.819,0-17.778,7.958-17.778,17.778v126.221c0,9.819,7.958,17.778,17.778,17.778
			s17.778-7.958,17.778-17.778V346.666C210.368,336.847,202.409,328.888,192.59,328.888z"/>
	</g>
</g>
<g>
	<g>
		<path d="M104.888,245.926c-9.819,0-17.778,7.958-17.778,17.778v209.183c0,9.819,7.958,17.778,17.778,17.778
			s17.778-7.958,17.778-17.778V263.704C122.665,253.885,114.707,245.926,104.888,245.926z"/>
	</g>
</g>
<g>
	<g>
		<path d="M17.778,157.032C7.958,157.032,0,164.991,0,174.81v298.077c0,9.819,7.958,17.778,17.778,17.778
			s17.778-7.958,17.778-17.784V174.81C35.555,164.991,27.597,157.032,17.778,157.032z"/>
	</g>
</g>
<g>
	<g>
		<path d="M506.696,249.251L381.068,125.406c-6.987-6.886-18.228-6.815-25.126,0.16l-39.342,39.792L213.082,67.653
			c-6.992-6.601-17.979-6.447-24.77,0.361l-46.66,46.66L33.226,25.384c-7.579-6.24-18.785-5.156-25.025,2.424
			s-5.156,18.785,2.43,25.025l120.887,99.554c7.064,5.813,17.392,5.321,23.869-1.156l45.86-45.86l103.584,97.777
			c7.016,6.625,18.044,6.441,24.847-0.427l39.075-39.525l112.982,111.388c3.467,3.413,7.97,5.114,12.48,5.114
			c4.593,0,9.185-1.772,12.658-5.304C513.766,267.396,513.689,256.142,506.696,249.251z"/>
	</g>
</g>
<g>
	<g>
		<path d="M494.216,127.403c-9.819,0-17.778,7.958-17.778,17.778v101.332h-100.74c-9.819,0-17.778,7.958-17.778,17.778
			c0,9.819,7.958,17.778,17.778,17.778h118.517c9.825,0,17.778-7.953,17.778-17.778v-119.11
			C511.994,135.362,504.036,127.403,494.216,127.403z"/>
	</g>
</g>
<g>
</g>
<g>
</g>
<g>
</g>
<g>
</g>
<g>
</g>
<g>
</g>
<g>
</g>
<g>
</g>
<g>
</g>
<g>
</g>
<g>
</g>
<g>
</g>
<g>
</g>
<g>
</g>
<g>
</g>
</svg>
