<?xml version="1.0" encoding="iso-8859-1"?>
<!-- Generator: Adobe Illustrator 19.0.0, SVG Export Plug-In . SVG Version: 6.00 Build 0)  -->
<svg version="1.1" id="Capa_1" xmlns="http://www.w3.org/2000/svg" xmlns:xlink="http://www.w3.org/1999/xlink" x="0px" y="0px"
	 viewBox="0 0 512 512" style="enable-background:new 0 0 512 512;" xml:space="preserve">
<g>
	<g>
		<path d="M471.221,101.947H40.779c-9.385,0-16.991,7.606-16.991,16.991v301.31c0,9.385,7.606,16.991,16.991,16.991h430.442
			c9.385,0,16.991-7.606,16.991-16.991v-301.31C488.212,109.553,480.606,101.947,471.221,101.947z M454.23,403.257H57.77V135.929
			h396.46V403.257z"/>
	</g>
</g>
<g>
	<g>
		<path d="M268.37,408.598c-6.434-6.825-17.189-7.148-24.02-0.708l-79.292,74.761c-6.83,6.434-7.148,17.189-0.708,24.014
			c3.342,3.545,7.85,5.335,12.364,5.335c4.18,0,8.371-1.529,11.656-4.627l79.292-74.761
			C274.492,426.178,274.809,415.422,268.37,408.598z"/>
	</g>
</g>
<g>
	<g>
		<path d="M346.897,482.033l-79.292-74.195c-6.859-6.417-17.603-6.049-24.014,0.799c-6.411,6.853-6.055,17.603,0.799,24.014
			l79.292,74.195c3.279,3.07,7.448,4.588,11.605,4.588c4.542,0,9.068-1.812,12.409-5.386
			C354.101,499.194,353.75,488.445,346.897,482.033z"/>
	</g>
</g>
<g>
	<g>
		<path d="M437.239,50.973H74.761c-9.385,0-16.991,7.606-16.991,16.991s7.606,16.991,16.991,16.991h362.478
			c9.385,0,16.991-7.606,16.991-16.991S446.624,50.973,437.239,50.973z"/>
	</g>
</g>
<g>
	<g>
		<path d="M301.31,0h-90.62c-9.385,0-16.991,7.606-16.991,16.991s7.606,16.991,16.991,16.991h90.62
			c9.385,0,16.991-7.606,16.991-16.991S310.695,0,301.31,0z"/>
	</g>
</g>
<g>
	<g>
		<path d="M365.31,276.384c-1.512,0-2.979,0.204-4.378,0.572h-59.056v-63.434c0-9.385-7.606-16.991-16.991-16.991
			c-26.087,0-50.464,10.013-68.882,28.438c-18.039,18.753-27.967,43.05-27.967,68.412c0,26.229,10.246,50.786,28.845,69.148
			c18.13,17.903,42.064,27.707,67.336,27.707c26.574,0.04,51.415-9.73,70.117-28.449c17.801-18.503,27.707-42.416,27.962-67.427
			c0.006-0.136,0.006-0.278,0.006-0.413v-0.572C382.301,283.99,374.695,276.384,365.31,276.384z M330.081,337.999
			c-11.939,11.939-27.367,18.249-44.84,18.249c-16.776,0.294-32.583-6.145-44.483-17.897c-12.086-11.928-18.741-27.899-18.741-44.97
			c0-16.538,6.564-32.47,18.248-44.624c7.856-7.85,17.223-13.27,27.628-16.057v61.247c0,9.385,7.606,16.991,16.991,16.991h60.93
			C342.91,320.946,337.535,330.246,330.081,337.999z"/>
	</g>
</g>
<g>
	<g>
		<path d="M403.608,175.694c-0.147-0.159-0.312-0.317-0.47-0.47c-18.758-18.039-43.05-27.967-68.412-27.967
			c-9.385,0-16.991,7.606-16.991,16.991v80.425c0,9.385,7.606,16.991,16.991,16.991h79.858c9.385,0,16.991-7.606,16.991-16.991
			C431.575,219.316,421.381,194.175,403.608,175.694z M351.723,227.681h-0.006v-44.092c10.144,2.86,19.619,8.263,27.628,15.892
			c7.584,7.969,13.049,17.756,15.926,28.2H351.723z"/>
	</g>
</g>
<g>
	<g>
		<path d="M158.584,257.699H99.115c-9.385,0-16.991,7.606-16.991,16.991c0,9.385,7.606,16.991,16.991,16.991h59.469
			c9.385,0,16.991-7.606,16.991-16.991C175.575,265.305,167.969,257.699,158.584,257.699z"/>
	</g>
</g>
<g>
	<g>
		<path d="M135.929,179.54H99.115c-9.385,0-16.991,7.606-16.991,16.991c0,9.385,7.606,16.991,16.991,16.991h36.814
			c9.385,0,16.991-7.606,16.991-16.991C152.92,187.146,145.314,179.54,135.929,179.54z"/>
	</g>
</g>
<g>
	<g>
		<path d="M134.23,335.292H99.115c-9.385,0-16.991,7.606-16.991,16.991c0,9.385,7.606,16.991,16.991,16.991h35.115
			c9.385,0,16.991-7.606,16.991-16.991C151.221,342.898,143.615,335.292,134.23,335.292z"/>
	</g>
</g>
<g>
</g>
<g>
</g>
<g>
</g>
<g>
</g>
<g>
</g>
<g>
</g>
<g>
</g>
<g>
</g>
<g>
</g>
<g>
</g>
<g>
</g>
<g>
</g>
<g>
</g>
<g>
</g>
<g>
</g>
</svg>
