<?xml version="1.0" encoding="iso-8859-1"?>
<!-- Generator: Adobe Illustrator 19.0.0, SVG Export Plug-In . SVG Version: 6.00 Build 0)  -->
<svg version="1.1" id="Capa_1" xmlns="http://www.w3.org/2000/svg" xmlns:xlink="http://www.w3.org/1999/xlink" x="0px" y="0px"
	 viewBox="0 0 512 512" style="enable-background:new 0 0 512 512;" xml:space="preserve">
<g>
	<g>
		<path d="M414.873,396.404c-38.996,0-70.725,31.728-70.725,70.73v29.031c0,8.746,7.089,15.835,15.835,15.835h109.79
			c8.746,0,15.835-7.089,15.835-15.835v-29.031C485.608,428.132,453.87,396.404,414.873,396.404z M453.938,480.33h-78.114v-13.196
			c0-21.172,17.883-39.06,39.055-39.06c21.171,0,39.06,17.883,39.06,39.06V480.33z"/>
	</g>
</g>
<g>
	<g>
		<path d="M414.878,311.417c-32.309,0-58.59,26.286-58.59,58.59c0,32.314,26.286,58.595,58.59,58.595
			c32.309,0,58.59-26.281,58.59-58.59S447.187,311.423,414.878,311.417z M414.878,396.937c-14.843,0-26.92-12.077-26.92-26.925
			c0-14.843,12.077-26.92,26.92-26.92s26.92,12.077,26.925,26.92C441.803,384.86,429.726,396.937,414.878,396.937z"/>
	</g>
</g>
<g>
	<g>
		<path d="M97.122,396.404c-39.002,0-70.73,31.728-70.73,70.73v29.031c0,8.746,7.089,15.835,15.835,15.835h109.79
			c8.746,0,15.835-7.089,15.835-15.835v-29.031C167.852,428.138,136.123,396.404,97.122,396.404z M136.181,480.33h-78.12v-13.196
			c0-21.177,17.888-39.06,39.06-39.06s39.06,17.883,39.06,39.06V480.33z"/>
	</g>
</g>
<g>
	<g>
		<path d="M97.122,311.417c-32.309,0-58.59,26.286-58.59,58.59c0,32.314,26.281,58.595,58.59,58.595s58.59-26.281,58.59-58.595
			C155.711,337.698,129.43,311.417,97.122,311.417z M97.122,396.937c-14.843,0-26.92-12.077-26.92-26.925
			c0-14.843,12.077-26.92,26.92-26.92s26.92,12.077,26.92,26.92C124.041,384.86,111.964,396.937,97.122,396.937z"/>
	</g>
</g>
<g>
	<g>
		<path d="M256,396.404c-39.002,0-70.73,31.728-70.73,70.73v29.031c0,8.746,7.089,15.835,15.835,15.835h109.79
			c8.752,0,15.835-7.089,15.835-15.835v-29.031C326.73,428.138,295.002,396.404,256,396.404z M295.06,480.33h-78.12v-13.196
			c0-21.172,17.888-39.06,39.06-39.06c21.171,0,39.06,17.883,39.06,39.06V480.33z"/>
	</g>
</g>
<g>
	<g>
		<path d="M256,311.417c-32.309,0-58.59,26.286-58.59,58.59c0,32.314,26.281,58.595,58.59,58.595
			c32.304,0,58.59-26.281,58.59-58.595C314.59,337.698,288.304,311.417,256,311.417z M256,396.937
			c-14.843,0-26.92-12.077-26.92-26.925c0-14.843,12.077-26.92,26.92-26.92c14.843,0,26.92,12.077,26.92,26.92
			C282.92,384.86,270.843,396.937,256,396.937z"/>
	</g>
</g>
<g>
	<g>
		<path d="M458.161,0H64.396C55.65,0,48.561,7.089,48.561,15.835v205.856c0,8.746,7.089,15.835,15.835,15.835h71.443l21.863,39.361
			c2.798,5.025,8.097,8.145,13.845,8.145c5.748,0,11.048-3.12,13.84-8.145l21.868-39.361h97.486l21.873,39.361
			c2.787,5.025,8.086,8.145,13.84,8.145c5.753,0,11.053-3.12,13.84-8.145l21.873-39.361h81.994c8.746,0,15.835-7.089,15.835-15.835
			V15.835C473.996,7.089,466.907,0,458.161,0z M442.326,205.856h-75.48c-5.753,0-11.053,3.12-13.84,8.145l-12.552,22.591
			L327.902,214c-2.787-5.025-8.086-8.145-13.84-8.145H197.938c-5.748,0-11.048,3.12-13.845,8.145l-12.547,22.591L159,214
			c-2.798-5.025-8.097-8.145-13.845-8.145H80.231V31.67h362.095V205.856z"/>
	</g>
</g>
<g>
	<g>
		<path d="M258.639,71.786H125.097c-8.746,0-15.835,7.089-15.835,15.835c0,8.746,7.089,15.835,15.835,15.835h133.542
			c8.746,0,15.835-7.089,15.835-15.835C274.474,78.874,267.385,71.786,258.639,71.786z"/>
	</g>
</g>
<g>
	<g>
		<path d="M386.903,129.32H125.097c-8.746,0-15.835,7.089-15.835,15.835s7.089,15.835,15.835,15.835h261.806
			c8.746,0,15.835-7.089,15.835-15.835S395.649,129.32,386.903,129.32z"/>
	</g>
</g>
<g>
</g>
<g>
</g>
<g>
</g>
<g>
</g>
<g>
</g>
<g>
</g>
<g>
</g>
<g>
</g>
<g>
</g>
<g>
</g>
<g>
</g>
<g>
</g>
<g>
</g>
<g>
</g>
<g>
</g>
</svg>
