<?xml version="1.0" encoding="iso-8859-1"?>
<!-- Generator: Adobe Illustrator 19.0.0, SVG Export Plug-In . SVG Version: 6.00 Build 0)  -->
<svg version="1.1" id="Capa_1" xmlns="http://www.w3.org/2000/svg" xmlns:xlink="http://www.w3.org/1999/xlink" x="0px" y="0px"
	 viewBox="0 0 512.002 512.002" style="enable-background:new 0 0 512.002 512.002;" xml:space="preserve">
<g>
	<g>
		<path d="M449.133,57.799h-89.306v32.874h72.87v388.456H79.306V90.673h73.418V57.799H62.869c-9.079,0-16.437,7.358-16.437,16.437
			v421.329c0,9.079,7.358,16.437,16.437,16.437h386.264c9.079,0,16.437-7.358,16.437-16.437V74.236
			C465.57,65.157,458.211,57.799,449.133,57.799z"/>
	</g>
</g>
<g>
	<g>
		<path d="M399.823,97.247h-39.996v32.874h23.559v299.155H129.164V130.121h23.559V97.247h-39.996
			c-9.079,0-16.437,7.358-16.437,16.437v332.028c0,9.079,7.358,16.437,16.437,16.437h287.096c9.079,0,16.437-7.358,16.437-16.437
			V113.684C416.259,104.605,408.901,97.247,399.823,97.247z"/>
	</g>
</g>
<g>
	<g>
		<path d="M359.268,45.74h-43.114c-5.939-22.622-24.973-40.566-48.072-44.637c-18.294-3.463-36.939,1.315-51.146,13.095
			c-10.01,8.301-17.045,19.324-20.382,31.548h-43.837c-9.079,0-16.437,7.358-16.437,16.437v63.556
			c0,9.079,7.358,16.437,16.437,16.437h206.555c9.079,0,16.437-7.358,16.431-16.442V62.177
			C375.704,53.098,368.346,45.74,359.268,45.74z M342.842,109.301H169.165V78.619h41.64c9.079,0,16.437-7.358,16.437-16.437
			c0-8.783,3.896-17.05,10.684-22.677c6.745-5.589,15.286-7.764,24.266-6.06c11.67,2.06,21.028,11.703,22.754,23.461
			c0.033,0.274,0.082,0.548,0.137,0.816c0.23,1.151,0.23,2.909,0.23,4.46c0,9.079,7.358,16.437,16.437,16.437h41.092V109.301z"/>
	</g>
</g>
<g>
	<g>
		<path d="M351.608,217.236h-93.69c-9.079,0-16.437,7.358-16.437,16.437c0,9.079,7.358,16.437,16.437,16.437h93.69
			c9.079,0,16.437-7.358,16.437-16.437C368.045,224.594,360.687,217.236,351.608,217.236z"/>
	</g>
</g>
<g>
	<g>
		<path d="M208.06,194.224h-45.475c-9.079,0-16.437,7.358-16.437,16.437v45.475c0,9.079,7.358,16.437,16.437,16.437h45.475
			c9.073,0,16.437-7.358,16.437-16.437v-45.475C224.497,201.582,217.139,194.224,208.06,194.224z M191.624,239.699h-12.602v-12.602
			h12.602V239.699z"/>
	</g>
</g>
<g>
	<g>
		<path d="M351.608,320.787h-93.69c-9.079,0-16.437,7.358-16.437,16.437c0,9.079,7.358,16.437,16.437,16.437h93.69
			c9.079,0,16.437-7.358,16.437-16.437C368.045,328.146,360.687,320.787,351.608,320.787z"/>
	</g>
</g>
<g>
	<g>
		<path d="M208.06,297.776h-45.475c-9.079,0-16.437,7.358-16.437,16.437v45.475c0,9.079,7.358,16.437,16.437,16.437h45.475
			c9.073,0,16.437-7.353,16.437-16.437v-45.475C224.497,305.134,217.139,297.776,208.06,297.776z M191.624,343.251h-12.602v-12.602
			h12.602V343.251z"/>
	</g>
</g>
<g>
</g>
<g>
</g>
<g>
</g>
<g>
</g>
<g>
</g>
<g>
</g>
<g>
</g>
<g>
</g>
<g>
</g>
<g>
</g>
<g>
</g>
<g>
</g>
<g>
</g>
<g>
</g>
<g>
</g>
</svg>
