<?xml version="1.0" encoding="iso-8859-1"?>
<!-- Generator: Adobe Illustrator 19.0.0, SVG Export Plug-In . SVG Version: 6.00 Build 0)  -->
<svg version="1.1" id="Capa_1" xmlns="http://www.w3.org/2000/svg" xmlns:xlink="http://www.w3.org/1999/xlink" x="0px" y="0px"
	 viewBox="0 0 511.999 511.999" style="enable-background:new 0 0 511.999 511.999;" xml:space="preserve">
<g>
	<g>
		<path d="M506.461,233.993c-4.783-70.734-39.399-136.41-94.991-180.183C355.715,9.908,283.527-8.393,213.337,3.596
			C88.091,24.887-3.197,140.987,5.504,267.821c3.912,61.496,29.811,118.238,73.315,161.322
			c-7.346,11.235-14.768,20.047-27.516,31.562c-9.302,7.971-12.549,20.584-8.28,32.135c4.298,11.615,14.996,19.124,26.932,19.118
			h0.006c1.291,0.029,2.61,0.041,3.948,0.041c29.577,0,69.321-6.05,100.34-22.827c41.186,14.096,84.708,17.443,126.407,9.647
			C426.817,475.356,515.296,361.492,506.461,233.993z M294.231,464.372c-38.646,7.223-77.507,3.568-115.546-10.838
			c-5.15-1.945-10.92-1.366-15.574,1.583c-20.794,13.156-51.633,19.895-77.753,21.478c13.39-13.6,21.518-25.501,30.978-41.589
			c4.257-7.235,2.78-16.473-3.515-22.021c-43.025-37.927-68.713-90.273-72.357-147.476
			c-7.492-109.187,71.02-209.059,178.752-227.372c0.006,0,0.006,0,0.012,0c12.158-2.079,24.374-3.101,36.544-3.101
			c48.304,0,95.697,16.117,134.022,46.301c47.814,37.647,77.595,94.15,81.706,155.044
			C478.987,344.353,401.123,444.5,294.231,464.372z"/>
	</g>
</g>
<g>
	<g>
		<path d="M145.032,208.895c-25.758,0-46.716,20.958-46.716,46.716c0,25.758,20.958,46.716,46.716,46.716
			c25.758,0,46.716-20.958,46.716-46.716C191.748,229.853,170.79,208.895,145.032,208.895z M145.032,267.289
			c-6.441,0-11.679-5.244-11.679-11.679c0-6.441,5.238-11.679,11.679-11.679c6.441,0,11.679,5.238,11.679,11.679
			C156.711,262.051,151.473,267.289,145.032,267.289z"/>
	</g>
</g>
<g>
	<g>
		<path d="M255.982,208.895c-25.758,0-46.716,20.958-46.716,46.716c0,25.758,20.958,46.716,46.716,46.716
			s46.716-20.958,46.716-46.716C302.698,229.853,281.74,208.895,255.982,208.895z M255.982,267.289
			c-6.441,0-11.679-5.244-11.679-11.679c0-6.441,5.238-11.679,11.679-11.679c6.441,0,11.679,5.238,11.679,11.679
			C267.661,262.051,262.423,267.289,255.982,267.289z"/>
	</g>
</g>
<g>
	<g>
		<path d="M366.933,208.895c-25.758,0-46.716,20.958-46.716,46.716c0,25.758,20.958,46.716,46.716,46.716
			c25.758,0,46.716-20.958,46.716-46.716C413.649,229.853,392.691,208.895,366.933,208.895z M366.933,267.289
			c-6.441,0-11.679-5.244-11.679-11.679c0-6.441,5.238-11.679,11.679-11.679c6.441,0,11.679,5.238,11.679,11.679
			C378.612,262.051,373.374,267.289,366.933,267.289z"/>
	</g>
</g>
<g>
</g>
<g>
</g>
<g>
</g>
<g>
</g>
<g>
</g>
<g>
</g>
<g>
</g>
<g>
</g>
<g>
</g>
<g>
</g>
<g>
</g>
<g>
</g>
<g>
</g>
<g>
</g>
<g>
</g>
</svg>
