<?xml version="1.0" encoding="iso-8859-1"?>
<!-- Generator: Adobe Illustrator 19.0.0, SVG Export Plug-In . SVG Version: 6.00 Build 0)  -->
<svg version="1.1" id="Capa_1" xmlns="http://www.w3.org/2000/svg" xmlns:xlink="http://www.w3.org/1999/xlink" x="0px" y="0px"
	 viewBox="0 0 512 512" style="enable-background:new 0 0 512 512;" xml:space="preserve">
<g>
	<g>
		<path d="M407.016,0H104.984c-10.09,0-18.268,8.178-18.268,18.268v387.284c0,10.09,8.178,18.268,18.268,18.268h112.653v-36.536
			h-94.385V36.536h265.496v350.747h-94.385v36.536h112.653c10.096,0,18.268-8.178,18.268-18.268V18.268
			C425.284,8.178,417.106,0,407.016,0z"/>
	</g>
</g>
<g>
	<g>
		<path d="M298.632,88.905h-85.251c-10.09,0-18.268,8.178-18.268,18.268s8.178,18.268,18.268,18.268h85.251
			c10.09,0,18.268-8.178,18.268-18.268S308.722,88.905,298.632,88.905z"/>
	</g>
</g>
<g>
	<g>
		<path d="M338.213,160.759H173.8c-10.09,0-18.268,8.178-18.268,18.268c0,10.09,8.178,18.268,18.268,18.268h164.413
			c10.09,0,18.268-8.178,18.268-18.268C356.481,168.937,348.303,160.759,338.213,160.759z"/>
	</g>
</g>
<g>
	<g>
		<path d="M256.006,233.229c-43.314,0-78.553,35.239-78.553,78.553c0,43.308,35.239,78.547,78.553,78.547
			s78.553-35.239,78.553-78.547C334.559,268.468,299.32,233.229,256.006,233.229z M256.006,353.786
			c-23.17,0-42.017-18.847-42.017-42.011c0-23.164,18.847-42.017,42.017-42.017c23.164,0,42.017,18.853,42.017,42.017
			S279.176,353.786,256.006,353.786z"/>
	</g>
</g>
<g>
	<g>
		<path d="M320.492,490.078l-9.749-133.357l-36.439,2.667l5.657,77.39l-8.001-10.949c-1.711-2.344-3.952-4.238-6.546-5.541
			c-8.281-4.159-18-2.783-24.193,3.434c-0.652,0.658-1.248,1.358-1.796,2.107l-8.001,10.949l5.657-77.39l-36.439-2.667
			l-9.743,133.357c-0.037,0.445-0.049,0.889-0.049,1.334c0,8.324,5.03,15.784,12.818,19.011c7.624,3.16,16.271,1.486,22.019-4.269
			c0.67-0.664,1.279-1.376,1.833-2.137l28.182-38.54l28.182,38.54c0.554,0.761,1.169,1.48,1.833,2.137
			c3.818,3.824,8.921,5.846,14.146,5.846c2.637,0,5.316-0.518,7.867-1.577c7.782-3.227,12.812-10.687,12.812-19.011
			C320.541,490.967,320.523,490.523,320.492,490.078z"/>
	</g>
</g>
<g>
</g>
<g>
</g>
<g>
</g>
<g>
</g>
<g>
</g>
<g>
</g>
<g>
</g>
<g>
</g>
<g>
</g>
<g>
</g>
<g>
</g>
<g>
</g>
<g>
</g>
<g>
</g>
<g>
</g>
</svg>
