<?xml version="1.0" encoding="iso-8859-1"?>
<!-- Generator: Adobe Illustrator 19.0.0, SVG Export Plug-In . SVG Version: 6.00 Build 0)  -->
<svg version="1.1" id="Capa_1" xmlns="http://www.w3.org/2000/svg" xmlns:xlink="http://www.w3.org/1999/xlink" x="0px" y="0px"
	 viewBox="0 0 512 512" style="enable-background:new 0 0 512 512;" xml:space="preserve">
<g>
	<g>
		<path d="M256,0C114.838,0,0,114.844,0,256s114.838,256,256,256c141.156,0,256-114.844,256-256S397.162,0,256,0z M256,477.011
			c-121.865,0-221.011-99.146-221.011-221.011S134.135,34.989,256,34.989S477.011,134.135,477.011,256S377.865,477.011,256,477.011z
			"/>
	</g>
</g>
<g>
	<g>
		<path d="M256,202.928c-29.256,0-53.066,23.81-53.066,53.072s23.804,53.066,53.066,53.066s53.066-23.804,53.066-53.066
			S285.262,202.928,256,202.928z M256,274.083c-9.966,0-18.077-8.112-18.077-18.077c0-9.972,8.112-18.083,18.077-18.083
			s18.077,8.112,18.077,18.083C274.077,265.972,265.966,274.083,256,274.083z"/>
	</g>
</g>
<g>
	<g>
		
			<rect x="329.957" y="175.552" transform="matrix(0.8064 -0.5914 0.5914 0.8064 -35.5806 277.4122)" width="151.853" height="34.989"/>
	</g>
</g>
<g>
	<g>
		<rect x="243.172" y="88.082" transform="matrix(0.5878 -0.809 0.809 0.5878 46.312 302.0464)" width="152.783" height="34.988"/>
	</g>
</g>
<g>
	<g>
		
			<rect x="29.571" y="301.198" transform="matrix(0.8073 -0.5902 0.5902 0.8073 -167.6299 124.0631)" width="153.139" height="34.99"/>
	</g>
</g>
<g>
	<g>
		
			<rect x="115.921" y="388.652" transform="matrix(0.5885 -0.8085 0.8085 0.5885 -249.0595 322.9518)" width="153.618" height="34.989"/>
	</g>
</g>
<g>
	<g>
		<path d="M256,148.707c-59.166,0-107.298,48.133-107.298,107.298c0,59.16,48.133,107.293,107.298,107.293
			c59.166,0,107.298-48.133,107.298-107.293C363.298,196.84,315.166,148.707,256,148.707z M256,328.304
			c-39.87,0-72.31-32.434-72.31-72.304s32.44-72.31,72.31-72.31s72.31,32.44,72.31,72.31S295.87,328.304,256,328.304z"/>
	</g>
</g>
<g>
</g>
<g>
</g>
<g>
</g>
<g>
</g>
<g>
</g>
<g>
</g>
<g>
</g>
<g>
</g>
<g>
</g>
<g>
</g>
<g>
</g>
<g>
</g>
<g>
</g>
<g>
</g>
<g>
</g>
</svg>
