<?xml version="1.0" encoding="iso-8859-1"?>
<!-- Generator: Adobe Illustrator 19.0.0, SVG Export Plug-In . SVG Version: 6.00 Build 0)  -->
<svg version="1.1" id="Capa_1" xmlns="http://www.w3.org/2000/svg" xmlns:xlink="http://www.w3.org/1999/xlink" x="0px" y="0px"
	 viewBox="0 0 512 512" style="enable-background:new 0 0 512 512;" xml:space="preserve">
<g>
	<g>
		<path d="M463.523,0H48.477c-9.025,0-16.34,7.315-16.34,16.34v66.996c0,9.025,7.315,16.34,16.34,16.34h415.047
			c9.025,0,16.34-7.315,16.34-16.34V16.34C479.864,7.315,472.549,0,463.523,0z M447.183,66.996H64.817V32.681h382.366V66.996z"/>
	</g>
</g>
<g>
	<g>
		<path d="M420.494,83.336v224.409H91.506V83.336H58.826v240.749c0,9.025,7.315,16.34,16.34,16.34h361.668
			c9.025,0,16.34-7.315,16.34-16.34V83.336H420.494z"/>
	</g>
</g>
<g>
	<g>
		<rect x="239.66" y="324.085" width="32.681" height="101.855"/>
	</g>
</g>
<g>
	<g>
		<path d="M256,409.605c-28.231,0-51.2,22.964-51.2,51.195c0,28.231,22.969,51.2,51.2,51.2c28.231,0,51.2-22.969,51.2-51.2
			C307.2,432.575,284.231,409.605,256,409.605z M256,479.314c-10.213,0-18.519-8.306-18.519-18.519
			c0-10.207,8.306-18.514,18.519-18.514c10.213,0,18.519,8.312,18.519,18.514C274.519,471.007,266.213,479.314,256,479.314z"/>
	</g>
</g>
<g>
</g>
<g>
</g>
<g>
</g>
<g>
</g>
<g>
</g>
<g>
</g>
<g>
</g>
<g>
</g>
<g>
</g>
<g>
</g>
<g>
</g>
<g>
</g>
<g>
</g>
<g>
</g>
<g>
</g>
</svg>
