<svg height="480pt" viewBox="0 -48 480 480" width="480pt" xmlns="http://www.w3.org/2000/svg"><path d="m303.609375 312.5-25.824219 15.5h-12.339844c3.476563-7.320312 2.863282-15.929688-1.621093-22.679688l-.84375-1.265624c-3.382813-5.082032-8.644531-8.609376-14.628907-9.804688-5.984374-1.199219-12.199218.035156-17.277343 3.421875l-33.496094 22.328125h-38.570313c-12.699218.011719-22.996093 10.308594-23.007812 23.007812v17.984376c.011719 12.699218 10.308594 22.996093 23.007812 23.007812h123.554688l46.261719-33.046875c10.050781-7.179687 12.636719-21.011719 5.867187-31.339844-6.773437-10.328125-20.492187-13.46875-31.082031-7.113281zm-127.609375 55.5h-16.992188c-3.867187-.003906-7.003906-3.140625-7.007812-7.007812v-17.984376c.003906-3.867187 3.140625-7.003906 7.007812-7.007812h16.992188zm143.527344-30.0625-42.089844 30.0625h-85.4375v-32h10.421875l37.527344-25.015625c3.226562-2.148437 7.578125-1.273437 9.726562 1.953125l.84375 1.265625c1.84375 2.78125 1.480469 6.476563-.875 8.84375l-20.964843 20.953125h53.535156l29.625-17.78125c3.226562-1.933594 7.40625-.976562 9.46875 2.167969 2.066406 3.148437 1.277344 7.359375-1.78125 9.550781zm0 0"/><path d="m176.390625 71.5 25.824219-15.5h12.339844c-3.476563 7.320312-2.863282 15.929688 1.621093 22.679688l.84375 1.265624c3.371094 5.089844 8.640625 8.621094 14.628907 9.804688 1.503906.300781 3.03125.453125 4.5625.453125 4.527343-.003906 8.953124-1.351563 12.714843-3.875l33.496094-22.328125h38.570313c12.699218-.011719 22.996093-10.308594 23.007812-23.007812v-17.984376c-.011719-12.699218-10.308594-22.9960932-23.007812-23.007812h-123.554688l-46.261719 33.046875c-10.050781 7.179687-12.636719 21.011719-5.867187 31.339844 6.773437 10.328125 20.492187 13.46875 31.082031 7.113281zm127.609375-55.5h16.992188c3.867187.003906 7.003906 3.140625 7.007812 7.007812v17.984376c-.003906 3.867187-3.140625 7.003906-7.007812 7.007812h-16.992188zm-143.527344 30.0625 42.089844-30.0625h85.4375v32h-10.421875l-37.527344 25.015625c-3.226562 2.148437-7.578125 1.273437-9.726562-1.953125l-.84375-1.265625c-1.84375-2.78125-1.480469-6.476563.875-8.84375l20.964843-20.953125h-53.535156l-29.625 17.78125c-3.226562 1.933594-7.40625.976562-9.46875-2.167969-2.066406-3.148437-1.277344-7.359375 1.78125-9.550781zm0 0"/><path d="m376 208h-8c-27.804688.050781-51.371094 20.480469-55.359375 48h-120.640625v16h160c13.25-.015625 23.984375-10.75 24-24zm-16 40c-.003906 4.417969-3.582031 7.996094-8 8h-23.195312c3.234374-15.695312 15.5-27.960938 31.195312-31.195312zm0 0"/><path d="m104 136v40h8c27.804688-.050781 51.371094-20.480469 55.359375-48h120.640625v-16h-160c-13.25.015625-23.984375 10.75-24 24zm16 0c.003906-4.417969 3.582031-7.996094 8-8h23.195312c-3.234374 15.695312-15.5 27.960938-31.195312 31.195312zm0 0"/><path d="m192 192c0 26.507812 21.492188 48 48 48s48-21.492188 48-48-21.492188-48-48-48c-26.496094.027344-47.972656 21.503906-48 48zm80 0c0 17.671875-14.328125 32-32 32s-32-14.328125-32-32 14.328125-32 32-32c17.664062.019531 31.980469 14.335938 32 32zm0 0"/><path d="m392 112c-13.253906 0-24 10.746094-24 24s10.746094 24 24 24 24-10.746094 24-24c-.015625-13.25-10.75-23.984375-24-24zm0 32c-4.417969 0-8-3.582031-8-8s3.582031-8 8-8 8 3.582031 8 8c-.003906 4.417969-3.582031 7.996094-8 8zm0 0"/><path d="m464 80h-144c-8.832031.011719-15.988281 7.167969-16 16v80c.011719 8.832031 7.167969 15.988281 16 16h144c8.832031-.011719 15.988281-7.167969 16-16v-80c-.011719-8.832031-7.167969-15.988281-16-16zm0 16v14.632812c-6.828125-2.433593-12.199219-7.804687-14.628906-14.632812zm-144 0h14.628906c-2.429687 6.828125-7.800781 12.199219-14.628906 14.632812zm0 80v-14.632812c6.828125 2.433593 12.199219 7.804687 14.628906 14.632812zm31.191406 0c-3.234375-15.691406-15.5-27.957031-31.191406-31.191406v-17.617188c15.691406-3.234375 27.957031-15.5 31.191406-31.191406h81.617188c3.234375 15.691406 15.5 27.957031 31.191406 31.191406v17.617188c-15.691406 3.234375-27.957031 15.5-31.191406 31.191406zm112.808594 0h-14.628906c2.429687-6.828125 7.800781-12.199219 14.628906-14.632812zm0 0"/><path d="m88 224c-13.253906 0-24 10.746094-24 24s10.746094 24 24 24 24-10.746094 24-24c-.015625-13.25-10.75-23.984375-24-24zm0 32c-4.417969 0-8-3.582031-8-8s3.582031-8 8-8 8 3.582031 8 8c-.003906 4.417969-3.582031 7.996094-8 8zm0 0"/><path d="m176 288v-80c-.011719-8.832031-7.167969-15.988281-16-16h-144c-8.832031.011719-15.9882812 7.167969-16 16v80c.0117188 8.832031 7.167969 15.988281 16 16h144c8.832031-.011719 15.988281-7.167969 16-16zm-16-80v14.632812c-6.828125-2.433593-12.199219-7.804687-14.628906-14.632812zm-144 0h14.628906c-2.429687 6.828125-7.800781 12.199219-14.628906 14.632812zm0 80v-14.632812c6.828125 2.433593 12.199219 7.804687 14.628906 14.632812zm31.191406 0c-3.234375-15.691406-15.5-27.957031-31.191406-31.191406v-17.617188c15.691406-3.234375 27.957031-15.5 31.191406-31.191406h81.617188c3.234375 15.691406 15.5 27.957031 31.191406 31.191406v17.617188c-15.691406 3.234375-27.957031 15.5-31.191406 31.191406zm112.808594-14.632812v14.632812h-14.628906c2.429687-6.828125 7.800781-12.199219 14.628906-14.632812zm0 0"/></svg>