<?xml version="1.0" encoding="iso-8859-1"?>
<!-- Generator: Adobe Illustrator 19.0.0, SVG Export Plug-In . SVG Version: 6.00 Build 0)  -->
<svg version="1.1" id="Capa_1" xmlns="http://www.w3.org/2000/svg" xmlns:xlink="http://www.w3.org/1999/xlink" x="0px" y="0px"
	 viewBox="0 0 512 512" style="enable-background:new 0 0 512 512;" xml:space="preserve">
<g>
	<g>
		<path d="M488.171,151.99H23.829c-10.671,0-19.321,8.649-19.321,19.321v321.369c0,10.671,8.649,19.321,19.321,19.321h464.342
			c10.672,0,19.321-8.649,19.321-19.321V171.311C507.492,160.639,498.843,151.99,488.171,151.99z M468.85,473.358H43.15V190.631
			H468.85V473.358z"/>
	</g>
</g>
<g>
	<g>
		<path d="M445.021,75.351H66.335c-10.672,0-19.321,8.649-19.321,19.321v76.639h38.641v-57.318h340.052v57.318h38.635V94.672
			C464.342,84,455.693,75.351,445.021,75.351z"/>
	</g>
</g>
<g>
	<g>
		<path d="M387.703,0h-264.05c-10.672,0-19.321,8.649-19.321,19.321v75.351h38.641v-56.03h225.409v56.03h38.642V19.321
			C407.024,8.649,398.375,0,387.703,0z"/>
	</g>
</g>
<g>
	<g>
		<path d="M330.385,280.151H180.971c-10.672,0-19.321,8.649-19.321,19.321s8.649,19.321,19.321,19.321h149.414
			c10.672,0,19.321-8.649,19.321-19.321S341.056,280.151,330.385,280.151z"/>
	</g>
</g>
<g>
</g>
<g>
</g>
<g>
</g>
<g>
</g>
<g>
</g>
<g>
</g>
<g>
</g>
<g>
</g>
<g>
</g>
<g>
</g>
<g>
</g>
<g>
</g>
<g>
</g>
<g>
</g>
<g>
</g>
</svg>
